<svg xmlns="http://www.w3.org/2000/svg" width="33" height="32" fill="none" viewBox="0 0 33 32"><circle cx="16.9404" cy="16" r="14" stroke="#2D459C" stroke-width="4"/><path fill="#2D459C" d="m23.21 13.64-3.587-3.42a1.538 1.538 0 0 0-1.06-.418c-.398 0-.78.15-1.061.419a1.4 1.4 0 0 0-.44 1.012c0 .379.159.743.44 1.011l2.44 2.326h-8.794c-.397 0-.779.15-1.06.419-.282.268-.44.632-.44 1.011 0 .38.158.743.44 1.012.281.268.663.418 1.06.418h8.793l-2.439 2.326c-.281.268-.44.632-.44 1.012s.159.743.44 1.011c.281.269.663.42 1.06.42.398 0 .78-.151 1.061-.42l3.586-3.419A3.265 3.265 0 0 0 24.233 16c0-.885-.368-1.733-1.024-2.36Z"/></svg>