<svg xmlns="http://www.w3.org/2000/svg" width="18" height="16" fill="none" viewBox="0 0 18 16"><path fill="#FFBF27" d="M17.405 8.806c0-.428-.07-.854-.205-1.26l-.97-2.912a2.537 2.537 0 0 0-2.407-1.735h-1.492v-.362A2.537 2.537 0 0 0 9.794 0H2.546A2.537 2.537 0 0 0 .009 2.537v11.597a1.812 1.812 0 1 0 3.588-.362h.797a1.812 1.812 0 1 0 3.552 0h4.421a1.813 1.813 0 1 0 3.552 0h1.486V8.806Zm-7.249 2.791H2.183v-9.06a.362.362 0 0 1 .363-.363h7.248a.362.362 0 0 1 .362.363v9.06Zm3.667-6.523a.362.362 0 0 1 .344.248l.97 2.91c.051.151.083.307.093.466h-2.9V5.074h1.493Z"/></svg>