<svg xmlns="http://www.w3.org/2000/svg" width="18" height="16" fill="none" viewBox="0 0 18 16"><path fill="#2D459C" d="M13.664 16H4.455a4.027 4.027 0 0 1-2.753-1.075A3.565 3.565 0 0 1 .56 12.333V3.667a3.565 3.565 0 0 1 1.142-2.592A4.027 4.027 0 0 1 4.455 0h9.209a4.027 4.027 0 0 1 2.753 1.075 3.565 3.565 0 0 1 1.143 2.592v8.666a3.565 3.565 0 0 1-1.143 2.592A4.027 4.027 0 0 1 13.664 16ZM4.455 2c-.47 0-.92.176-1.252.488a1.618 1.618 0 0 0-.518 1.179v8.666c0 .442.186.866.518 1.179.332.312.783.488 1.252.488h9.209c.47 0 .92-.176 1.252-.488.332-.313.519-.737.519-1.179V3.667c0-.442-.187-.866-.52-1.179A1.829 1.829 0 0 0 13.665 2h-9.21Zm9.563 2.667c0-.354-.15-.693-.415-.943a1.463 1.463 0 0 0-1.002-.39H5.518c-.376 0-.736.14-1.002.39s-.415.589-.415.943c0 .353.15.692.415.942.266.25.626.391 1.002.391H12.6c.376 0 .736-.14 1.002-.39s.415-.59.415-.943Zm-8.854 3c-.21 0-.416.058-.59.168-.175.11-.311.266-.392.449a.946.946 0 0 0-.06.578.983.983 0 0 0 .29.512 1.117 1.117 0 0 0 1.158.217c.194-.076.36-.204.477-.369a.959.959 0 0 0 .18-.555.971.971 0 0 0-.312-.707c-.2-.188-.47-.293-.751-.293Zm3.541 0c-.21 0-.415.058-.59.168-.175.11-.31.266-.391.449a.945.945 0 0 0-.06.578.983.983 0 0 0 .29.512 1.118 1.118 0 0 0 1.158.217c.194-.076.36-.204.477-.369a.959.959 0 0 0 .179-.555.971.971 0 0 0-.311-.707c-.2-.188-.47-.293-.752-.293Zm-3.541 3c-.21 0-.416.058-.59.168-.175.11-.311.266-.392.449a.946.946 0 0 0-.06.578.984.984 0 0 0 .29.512c.149.14.338.235.544.274.207.038.42.018.614-.057a1.05 1.05 0 0 0 .477-.369.959.959 0 0 0 .18-.555.971.971 0 0 0-.312-.707c-.2-.188-.47-.293-.751-.293Zm3.541 0c-.21 0-.415.058-.59.168-.175.11-.31.266-.391.449a.945.945 0 0 0-.06.578.984.984 0 0 0 .29.512c.149.14.338.235.544.274.206.038.42.018.614-.057a1.05 1.05 0 0 0 .477-.369.959.959 0 0 0 .179-.555.971.971 0 0 0-.311-.707c-.2-.188-.47-.293-.752-.293Zm5.313 1a.97.97 0 0 0-.311-.707c-.2-.188-.47-.293-.752-.293h-.708c-.282 0-.552.105-.751.293a.97.97 0 0 0-.311.707c0 .265.111.52.31.707.2.187.47.293.752.293h.708c.282 0 .552-.106.752-.293a.971.971 0 0 0 .31-.707Zm0-3a.971.971 0 0 0-.311-.707c-.2-.188-.47-.293-.752-.293h-.708c-.282 0-.552.105-.751.293a.971.971 0 0 0-.311.707c0 .265.111.52.31.707.2.187.47.293.752.293h.708c.282 0 .552-.106.752-.293a.97.97 0 0 0 .31-.707Z"/></svg>