<svg xmlns="http://www.w3.org/2000/svg" width="17" height="16" fill="none" viewBox="0 0 17 16"><g clip-path="url(#a)"><path fill="#FFBF27" d="M15.357 7.333a.667.667 0 0 1-.667-.667 5.339 5.339 0 0 0-5.333-5.333.667.667 0 0 1 0-1.334 6.674 6.674 0 0 1 6.667 6.667.667.667 0 0 1-.667.667Zm-2-.667a4 4 0 0 0-4-4 .667.667 0 0 0 0 1.333 2.667 2.667 0 0 1 2.667 2.667.667.667 0 0 0 1.333 0Zm1.455 8.11.607-.7a2.067 2.067 0 0 0 0-2.918c-.02-.02-1.625-1.255-1.625-1.255a2.067 2.067 0 0 0-2.854.004l-1.27 1.071a8.523 8.523 0 0 1-4.622-4.63l1.067-1.266a2.067 2.067 0 0 0 .005-2.855S4.884.625 4.864.605A2.055 2.055 0 0 0 1.98.575l-.767.666c-4.53 5.254 5.224 14.932 10.652 14.758a4.103 4.103 0 0 0 2.947-1.224Z"/></g><defs><clipPath id="a"><path fill="#fff" d="M.023 0h16v16h-16z"/></clipPath></defs></svg>