<svg xmlns="http://www.w3.org/2000/svg" width="104" height="21" fill="none" viewBox="0 0 104 21"><path fill="#FFB800" d="m10.834.082 3.272 5.806 6.533 1.318-4.51 4.906.765 6.62-6.06-2.773-6.06 2.774.765-6.62-4.511-4.907 6.533-1.318L10.834.082Zm20.62 0 3.272 5.806 6.533 1.318-4.51 4.906.765 6.62-6.06-2.773-6.06 2.774.765-6.62-4.51-4.907 6.532-1.318L31.454.082Zm20.62 0 3.272 5.806 6.533 1.318-4.51 4.906.765 6.62-6.06-2.773-6.06 2.774.765-6.62-4.51-4.907L48.8 5.888 52.074.082Zm20.62 0 3.272 5.806L82.5 7.206l-4.51 4.906.765 6.62-6.06-2.773-6.06 2.774.765-6.62-4.51-4.907 6.532-1.318L72.694.082Zm20.62 0 3.272 5.806 6.533 1.318-4.51 4.906.765 6.62-6.06-2.773-6.06 2.774.765-6.62-4.51-4.907 6.532-1.318L93.314.082Z"/></svg>