<svg width="20" height="19" viewBox="0 0 20 19" xmlns="http://www.w3.org/2000/svg">
    <g id="facebook 1" clip-path="url(#clip0_281_414)">
        <g id="Group">
            <path id="Vector"
                  d="M19.519 9.36646C19.519 13.8582 16.0405 17.582 11.4995 18.2577V11.9855H13.7074L14.1278 9.39046H11.4995V7.70671C11.4995 6.99646 11.8668 6.30496 13.0432 6.30496H14.2378V4.09546C14.2378 4.09546 13.1533 3.91996 12.117 3.91996C9.95254 3.91996 8.53863 5.16271 8.53863 7.41196V9.38971H6.13275V11.9847H8.53863V18.257C3.99842 17.5805 0.519043 13.8575 0.519043 9.36646C0.519043 4.39621 4.77267 0.366455 10.019 0.366455C15.2654 0.366455 19.519 4.39546 19.519 9.36646Z"/>
        </g>
    </g>
    <defs>
        <clipPath id="clip0_281_414">
            <rect width="19" height="18" fill="white" transform="translate(0.519043 0.311768)"/>
        </clipPath>
    </defs>
</svg>
