<svg width="21" height="19" viewBox="0 0 21 19" xmlns="http://www.w3.org/2000/svg">
    <g id="instagram 1" clip-path="url(#clip0_281_409)">
        <g id="Group">
            <path id="Vector"
                  d="M10.519 1.93327C13.189 1.93327 13.5057 1.94227 14.5599 1.98577C15.6499 2.03077 16.7724 2.25427 17.5665 2.96902C18.3682 3.69052 18.609 4.69102 18.659 5.67502C18.7074 6.62377 18.7174 6.90877 18.7174 9.31177C18.7174 11.7148 18.7074 11.9998 18.659 12.9485C18.6099 13.9243 18.3557 14.9443 17.5665 15.6545C16.7649 16.376 15.654 16.5928 14.5599 16.6378C13.5057 16.6813 13.189 16.6903 10.519 16.6903C7.84904 16.6903 7.53238 16.6813 6.47821 16.6378C5.40238 16.5935 4.25404 16.3595 3.47154 15.6545C2.67404 14.9368 2.42904 13.9265 2.37904 12.9485C2.33071 11.9998 2.32071 11.7148 2.32071 9.31177C2.32071 6.90877 2.33071 6.62377 2.37904 5.67502C2.42821 4.70302 2.68488 3.67702 3.47154 2.96902C4.27154 2.24902 5.38738 2.03077 6.47821 1.98577C7.53238 1.94227 7.84904 1.93327 10.519 1.93327ZM10.519 0.311768C7.80321 0.311768 7.46238 0.322268 6.39571 0.365768C4.84988 0.429518 3.31488 0.816518 2.19738 1.82227C1.07571 2.83177 0.649876 4.21027 0.579043 5.60077C0.53071 6.56077 0.519043 6.86752 0.519043 9.31177C0.519043 11.756 0.53071 12.0628 0.579043 13.0228C0.649876 14.4125 1.08154 15.7978 2.19738 16.8013C3.31821 17.81 4.85238 18.194 6.39571 18.2578C7.46238 18.3013 7.80321 18.3118 10.519 18.3118C13.2349 18.3118 13.5757 18.3013 14.6424 18.2578C16.1874 18.194 17.724 17.8063 18.8407 16.8013C19.9632 15.791 20.3882 14.4133 20.459 13.0228C20.5074 12.0628 20.519 11.756 20.519 9.31177C20.519 6.86752 20.5074 6.56077 20.459 5.60077C20.3882 4.20952 19.9574 2.82727 18.8407 1.82227C17.7215 0.815017 16.1832 0.428768 14.6424 0.365768C13.5757 0.322268 13.2349 0.311768 10.519 0.311768Z"/>
            <path id="Vector_2"
                  d="M10.5193 4.69019C7.68344 4.69019 5.38428 6.75944 5.38428 9.31169C5.38428 11.8639 7.68344 13.9332 10.5193 13.9332C13.3551 13.9332 15.6543 11.8639 15.6543 9.31169C15.6543 6.75944 13.3551 4.69019 10.5193 4.69019ZM10.5193 12.3117C8.67844 12.3117 7.18594 10.9684 7.18594 9.31169C7.18594 7.65494 8.67844 6.31169 10.5193 6.31169C12.3601 6.31169 13.8526 7.65494 13.8526 9.31169C13.8526 10.9684 12.3601 12.3117 10.5193 12.3117Z"/>
            <path id="Vector_3"
                  d="M15.8572 5.58725C16.52 5.58725 17.0572 5.10371 17.0572 4.50725C17.0572 3.91078 16.52 3.42725 15.8572 3.42725C15.1945 3.42725 14.6572 3.91078 14.6572 4.50725C14.6572 5.10371 15.1945 5.58725 15.8572 5.58725Z"/>
        </g>
    </g>
    <defs>
        <clipPath id="clip0_281_409">
            <rect width="20" height="18" fill="white" transform="translate(0.519043 0.311768)"/>
        </clipPath>
    </defs>
</svg>
