<svg width="20" height="19" viewBox="0 0 20 19" xmlns="http://www.w3.org/2000/svg">
    <g id="pinterest 1" clip-path="url(#clip0_281_406)">
        <g id="Group">
            <path id="Vector"
                  d="M10.0268 0.311768C4.78433 0.311768 0.534668 4.33777 0.534668 9.30427C0.534668 13.1158 3.03475 16.3723 6.56559 17.6825C6.47929 16.9723 6.40963 15.8765 6.59646 15.0995C6.76825 14.396 7.70559 10.6288 7.70559 10.6288C7.70559 10.6288 7.42454 10.0888 7.42454 9.29677C7.42454 8.04577 8.19008 7.11352 9.14325 7.11352C9.9555 7.11352 10.3466 7.69102 10.3466 8.37952C10.3466 9.14902 9.83121 10.304 9.55729 11.3773C9.33088 12.2728 10.0339 13.0055 10.9633 13.0055C12.6511 13.0055 13.9479 11.318 13.9479 8.89027C13.9479 6.73627 12.3155 5.23402 9.97925 5.23402C7.2765 5.23402 5.69 7.15102 5.69 9.13477C5.69 9.90427 6.00271 10.7338 6.393 11.1853C6.47217 11.273 6.48009 11.3548 6.45634 11.4433C6.38588 11.7245 6.222 12.3388 6.19034 12.4648C6.15154 12.6275 6.04942 12.6643 5.86971 12.5833C4.68221 12.0575 3.93963 10.4218 3.93963 9.09727C3.93963 6.26227 6.11117 3.65752 10.2128 3.65752C13.5022 3.65752 16.064 5.87827 16.064 8.85352C16.064 11.9548 14.0017 14.4493 11.1422 14.4493C10.1811 14.4493 9.27467 13.9753 8.97067 13.4128C8.97067 13.4128 8.49408 15.1295 8.37692 15.5518C8.16633 16.3363 7.58763 17.3135 7.19733 17.9128C8.08875 18.1708 9.02688 18.3118 10.0109 18.3118C15.2533 18.3118 19.503 14.2858 19.503 9.31927C19.5188 4.33777 15.2692 0.311768 10.0268 0.311768Z"/>
        </g>
    </g>
    <defs>
        <clipPath id="clip0_281_406">
            <rect width="19" height="18" fill="white" transform="translate(0.519043 0.311768)"/>
        </clipPath>
    </defs>
</svg>
