<svg width="34" height="35" viewBox="0 0 34 35" xmlns="http://www.w3.org/2000/svg">
    <g id="angulo-circulo-abajo 1" clip-path="url(#clip0_281_389)">
        <path id="Vector"
              d="M17 34.3118C20.3623 34.3118 23.6491 33.3147 26.4447 31.4468C29.2403 29.5788 31.4193 26.9237 32.7059 23.8174C33.9926 20.711 34.3293 17.2929 33.6733 13.9952C33.0174 10.6976 31.3983 7.66845 29.0208 5.29095C26.6433 2.91346 23.6142 1.29437 20.3165 0.638419C17.0189 -0.01753 13.6007 0.319124 10.4944 1.60581C7.38803 2.89251 4.73299 5.07144 2.86501 7.86707C0.997027 10.6627 -9.66396e-06 13.9495 -9.9579e-06 17.3118C0.00486483 21.8189 1.7975 26.1401 4.98456 29.3272C8.17162 32.5143 12.4928 34.3069 17 34.3118ZM17 3.1451C19.8019 3.1451 22.5409 3.97596 24.8706 5.53262C27.2003 7.08927 29.016 9.3018 30.0883 11.8904C31.1605 14.479 31.4411 17.3275 30.8945 20.0755C30.3478 22.8236 28.9986 25.3479 27.0173 27.3291C25.0361 29.3104 22.5118 30.6596 19.7638 31.2062C17.0157 31.7528 14.1673 31.4723 11.5786 30.4001C8.99002 29.3278 6.77749 27.512 5.22084 25.1823C3.66419 22.8526 2.83332 20.1137 2.83332 17.3118C2.83745 13.5558 4.33133 9.95485 6.9872 7.29898C9.64307 4.6431 13.244 3.14923 17 3.1451Z"
        />
        <path id="Vector_2"
              d="M16.9998 12.9951C18.0368 12.994 19.0383 13.373 19.8147 14.0604C20.278 14.4727 20.7171 14.8736 21.0047 15.1612L25.0748 19.1618C25.3253 19.4284 25.4629 19.7816 25.4589 20.1474C25.4549 20.5132 25.3095 20.8633 25.0532 21.1243C24.7969 21.3853 24.4496 21.5371 24.084 21.5479C23.7183 21.5586 23.3627 21.4275 23.0915 21.182L19.0115 17.1742C18.7451 16.9093 18.3485 16.5495 17.9362 16.1826C17.6774 15.9543 17.3442 15.8283 16.9991 15.8283C16.654 15.8283 16.3208 15.9543 16.062 16.1826C15.6511 16.5481 15.2545 16.9079 14.9966 17.1643L10.9081 21.182C10.7775 21.3211 10.62 21.4324 10.4453 21.5091C10.2705 21.5858 10.0821 21.6265 9.89123 21.6286C9.70039 21.6307 9.51108 21.5942 9.33469 21.5213C9.1583 21.4484 8.99845 21.3407 8.86474 21.2045C8.73103 21.0683 8.62622 20.9065 8.5566 20.7288C8.48698 20.5511 8.45398 20.3611 8.45959 20.1704C8.4652 19.9796 8.5093 19.7919 8.58925 19.6186C8.66919 19.4453 8.78333 19.2899 8.92481 19.1618L13.0034 15.1541C13.2867 14.8707 13.7216 14.4741 14.1835 14.0647C14.9595 13.3751 15.9617 12.9944 16.9998 12.9951Z"
        />
    </g>
    <defs>
        <clipPath id="clip0_281_389">
            <rect width="34" height="34" fill="white" transform="translate(34 34.3118) rotate(-180)"/>
        </clipPath>
    </defs>
</svg>
