<svg width="33" height="32" viewBox="0 0 33 32" fill="none" xmlns="http://www.w3.org/2000/svg">
<circle cx="16.9404" cy="16" r="14" stroke="#2D459C" stroke-width="4"/>
<path d="M23.2094 13.64L19.6234 10.2205C19.342 9.95229 18.9604 9.80167 18.5626 9.80176C18.1647 9.80185 17.7832 9.95264 17.5019 10.221C17.2207 10.4893 17.0627 10.8532 17.0628 11.2326C17.0629 11.612 17.221 11.9758 17.5024 12.244L19.9414 14.5698H11.1484C10.7506 14.5698 10.3691 14.7205 10.0878 14.9887C9.80647 15.2569 9.64844 15.6208 9.64844 16.0001C9.64844 16.3795 9.80647 16.7433 10.0878 17.0115C10.3691 17.2798 10.7506 17.4305 11.1484 17.4305H19.9414L17.5024 19.7563C17.221 20.0245 17.0629 20.3883 17.0628 20.7677C17.0627 21.1471 17.2207 21.5109 17.5019 21.7793C17.7832 22.0476 18.1647 22.1984 18.5626 22.1985C18.9604 22.1986 19.342 22.048 19.6234 21.7797L23.2094 18.3602C23.8647 17.7337 24.2326 16.885 24.2326 16.0001C24.2326 15.1153 23.8647 14.2666 23.2094 13.64Z" fill="#2D459C"/>
</svg>
