<svg width="18" height="16" viewBox="0 0 18 16" fill="none" xmlns="http://www.w3.org/2000/svg">
<path d="M17.4046 8.80592C17.4047 8.37751 17.3357 7.95189 17.2002 7.54545L16.2297 4.63382C16.0613 4.12877 15.7383 3.68949 15.3064 3.37819C14.8745 3.06689 14.3556 2.89936 13.8233 2.89931H12.3308V2.53689C12.3308 1.86407 12.0636 1.2188 11.5878 0.743039C11.112 0.267279 10.4668 0 9.79395 0H2.54568C1.87286 0 1.22759 0.267279 0.751828 0.743039C0.276068 1.2188 0.00878906 1.86407 0.00878906 2.53689L0.00878906 14.1341C0.0090435 14.3873 0.0623454 14.6376 0.165259 14.8689C0.268172 15.1002 0.418413 15.3074 0.606296 15.4771C0.794179 15.6468 1.01554 15.7752 1.25609 15.8541C1.49665 15.933 1.75108 15.9606 2.00297 15.9352C2.25485 15.9098 2.49861 15.8318 2.71854 15.7064C2.93846 15.581 3.12966 15.4109 3.27981 15.207C3.42996 15.0032 3.53574 14.7702 3.59032 14.5229C3.64489 14.2757 3.64706 14.0198 3.59668 13.7717H4.39399C4.34055 14.0349 4.34628 14.3067 4.41075 14.5674C4.47522 14.828 4.59683 15.0711 4.76678 15.2791C4.93673 15.487 5.15078 15.6546 5.39343 15.7696C5.63608 15.8847 5.90127 15.9444 6.16982 15.9444C6.43837 15.9444 6.70356 15.8847 6.94621 15.7696C7.18886 15.6546 7.4029 15.487 7.57285 15.2791C7.7428 15.0711 7.86442 14.828 7.92889 14.5674C7.99336 14.3067 7.99908 14.0349 7.94564 13.7717H12.3671C12.3136 14.0349 12.3194 14.3067 12.3838 14.5674C12.4483 14.828 12.5699 15.0711 12.7399 15.2791C12.9098 15.487 13.1239 15.6546 13.3665 15.7696C13.6092 15.8847 13.8744 15.9444 14.1429 15.9444C14.4115 15.9444 14.6767 15.8847 14.9193 15.7696C15.162 15.6546 15.376 15.487 15.5459 15.2791C15.7159 15.0711 15.8375 14.828 15.902 14.5674C15.9665 14.3067 15.9722 14.0349 15.9187 13.7717H17.4046V8.80592ZM10.1564 11.5972H2.18327V2.53689C2.18327 2.44078 2.22145 2.3486 2.28942 2.28063C2.35738 2.21266 2.44957 2.17448 2.54568 2.17448H9.79395C9.89007 2.17448 9.98225 2.21266 10.0502 2.28063C10.1182 2.3486 10.1564 2.44078 10.1564 2.53689V11.5972ZM13.8233 5.07379C13.8993 5.07385 13.9734 5.09782 14.035 5.1423C14.0967 5.18679 14.1428 5.24954 14.1668 5.32168L15.1374 8.23258C15.1884 8.38299 15.2196 8.53943 15.2302 8.69792H12.3308V5.07379H13.8233Z" fill="#FFBF27"/>
</svg>
