<svg width="18" height="16" viewBox="0 0 18 16" fill="none" xmlns="http://www.w3.org/2000/svg">
<path id="Vector" d="M13.6637 16H4.4554C3.42251 15.9989 2.43224 15.6123 1.70188 14.9249C0.971509 14.2375 0.560695 13.3055 0.55957 12.3333L0.55957 3.66667C0.560695 2.69453 0.971509 1.76252 1.70188 1.07511C2.43224 0.387707 3.42251 0.00105878 4.4554 0L13.6637 0C14.6966 0.00105878 15.6869 0.387707 16.4173 1.07511C17.1476 1.76252 17.5584 2.69453 17.5596 3.66667V12.3333C17.5584 13.3055 17.1476 14.2375 16.4173 14.9249C15.6869 15.6123 14.6966 15.9989 13.6637 16ZM4.4554 2C3.98575 2 3.53533 2.17559 3.20324 2.48816C2.87114 2.80072 2.68457 3.22464 2.68457 3.66667V12.3333C2.68457 12.7754 2.87114 13.1993 3.20324 13.5118C3.53533 13.8244 3.98575 14 4.4554 14H13.6637C14.1334 14 14.5838 13.8244 14.9159 13.5118C15.248 13.1993 15.4346 12.7754 15.4346 12.3333V3.66667C15.4346 3.22464 15.248 2.80072 14.9159 2.48816C14.5838 2.17559 14.1334 2 13.6637 2H4.4554ZM14.0179 4.66667C14.0179 4.31305 13.8686 3.97391 13.603 3.72386C13.3373 3.47381 12.977 3.33333 12.6012 3.33333H5.5179C5.14218 3.33333 4.78185 3.47381 4.51617 3.72386C4.25049 3.97391 4.10124 4.31305 4.10124 4.66667C4.10124 5.02029 4.25049 5.35943 4.51617 5.60948C4.78185 5.85952 5.14218 6 5.5179 6H12.6012C12.977 6 13.3373 5.85952 13.603 5.60948C13.8686 5.35943 14.0179 5.02029 14.0179 4.66667ZM5.16374 7.66667C4.95359 7.66667 4.74817 7.72532 4.57344 7.8352C4.39872 7.94508 4.26253 8.10126 4.18211 8.28398C4.1017 8.46671 4.08066 8.66778 4.12165 8.86176C4.16265 9.05574 4.26384 9.23392 4.41244 9.37377C4.56103 9.51363 4.75035 9.60887 4.95645 9.64745C5.16256 9.68604 5.37619 9.66623 5.57034 9.59055C5.76448 9.51486 5.93042 9.38669 6.04717 9.22224C6.16392 9.05779 6.22624 8.86445 6.22624 8.66667C6.22624 8.40145 6.1143 8.1471 5.91504 7.95956C5.71578 7.77202 5.44553 7.66667 5.16374 7.66667ZM8.7054 7.66667C8.49526 7.66667 8.28984 7.72532 8.11511 7.8352C7.94038 7.94508 7.8042 8.10126 7.72378 8.28398C7.64336 8.46671 7.62232 8.66778 7.66332 8.86176C7.70432 9.05574 7.80551 9.23392 7.9541 9.37377C8.1027 9.51363 8.29202 9.60887 8.49812 9.64745C8.70422 9.68604 8.91786 9.66623 9.112 9.59055C9.30615 9.51486 9.47209 9.38669 9.58884 9.22224C9.70559 9.05779 9.7679 8.86445 9.7679 8.66667C9.7679 8.40145 9.65596 8.1471 9.4567 7.95956C9.25745 7.77202 8.9872 7.66667 8.7054 7.66667ZM5.16374 10.6667C4.95359 10.6667 4.74817 10.7253 4.57344 10.8352C4.39872 10.9451 4.26253 11.1013 4.18211 11.284C4.1017 11.4667 4.08066 11.6678 4.12165 11.8618C4.16265 12.0557 4.26384 12.2339 4.41244 12.3738C4.56103 12.5136 4.75035 12.6089 4.95645 12.6475C5.16256 12.686 5.37619 12.6662 5.57034 12.5905C5.76448 12.5149 5.93042 12.3867 6.04717 12.2222C6.16392 12.0578 6.22624 11.8644 6.22624 11.6667C6.22624 11.4015 6.1143 11.1471 5.91504 10.9596C5.71578 10.772 5.44553 10.6667 5.16374 10.6667ZM8.7054 10.6667C8.49526 10.6667 8.28984 10.7253 8.11511 10.8352C7.94038 10.9451 7.8042 11.1013 7.72378 11.284C7.64336 11.4667 7.62232 11.6678 7.66332 11.8618C7.70432 12.0557 7.80551 12.2339 7.9541 12.3738C8.1027 12.5136 8.29202 12.6089 8.49812 12.6475C8.70422 12.686 8.91786 12.6662 9.112 12.5905C9.30615 12.5149 9.47209 12.3867 9.58884 12.2222C9.70559 12.0578 9.7679 11.8644 9.7679 11.6667C9.7679 11.4015 9.65596 11.1471 9.4567 10.9596C9.25745 10.772 8.9872 10.6667 8.7054 10.6667ZM14.0179 11.6667C14.0179 11.4015 13.906 11.1471 13.7067 10.9596C13.5074 10.772 13.2372 10.6667 12.9554 10.6667H12.2471C11.9653 10.6667 11.695 10.772 11.4958 10.9596C11.2965 11.1471 11.1846 11.4015 11.1846 11.6667C11.1846 11.9319 11.2965 12.1862 11.4958 12.3738C11.695 12.5613 11.9653 12.6667 12.2471 12.6667H12.9554C13.2372 12.6667 13.5074 12.5613 13.7067 12.3738C13.906 12.1862 14.0179 11.9319 14.0179 11.6667ZM14.0179 8.66667C14.0179 8.40145 13.906 8.1471 13.7067 7.95956C13.5074 7.77202 13.2372 7.66667 12.9554 7.66667H12.2471C11.9653 7.66667 11.695 7.77202 11.4958 7.95956C11.2965 8.1471 11.1846 8.40145 11.1846 8.66667C11.1846 8.93188 11.2965 9.18624 11.4958 9.37377C11.695 9.56131 11.9653 9.66667 12.2471 9.66667H12.9554C13.2372 9.66667 13.5074 9.56131 13.7067 9.37377C13.906 9.18624 14.0179 8.93188 14.0179 8.66667Z" fill="#2D459C"/>
</svg>
