<svg width="17" height="16" viewBox="0 0 17 16" fill="none" xmlns="http://www.w3.org/2000/svg">
<g clip-path="url(#clip0_281_459)">
<path d="M15.357 7.33277C15.1802 7.33277 15.0106 7.26253 14.8856 7.1375C14.7605 7.01248 14.6903 6.84291 14.6903 6.6661C14.6889 5.25205 14.1265 3.89631 13.1266 2.89642C12.1268 1.89654 10.771 1.33418 9.35697 1.33277C9.18016 1.33277 9.01059 1.26253 8.88556 1.1375C8.76054 1.01248 8.6903 0.842911 8.6903 0.6661C8.6903 0.489289 8.76054 0.31972 8.88556 0.194696C9.01059 0.0696715 9.18016 -0.000566392 9.35697 -0.000566392C11.1245 0.00137467 12.819 0.704377 14.0689 1.9542C15.3187 3.20402 16.0217 4.89859 16.0236 6.6661C16.0236 6.84291 15.9534 7.01248 15.8284 7.1375C15.7033 7.26253 15.5338 7.33277 15.357 7.33277ZM13.357 6.6661C13.357 5.60523 12.9355 4.58782 12.1854 3.83767C11.4353 3.08753 10.4178 2.6661 9.35697 2.6661C9.18016 2.6661 9.01059 2.73634 8.88556 2.86136C8.76054 2.98639 8.6903 3.15596 8.6903 3.33277C8.6903 3.50958 8.76054 3.67915 8.88556 3.80417C9.01059 3.9292 9.18016 3.99943 9.35697 3.99943C10.0642 3.99943 10.7425 4.28039 11.2426 4.78048C11.7427 5.28058 12.0236 5.95886 12.0236 6.6661C12.0236 6.84291 12.0939 7.01248 12.2189 7.1375C12.3439 7.26253 12.5135 7.33277 12.6903 7.33277C12.8671 7.33277 13.0367 7.26253 13.1617 7.1375C13.2867 7.01248 13.357 6.84291 13.357 6.6661ZM14.8123 14.7754L15.419 14.0761C15.8051 13.6887 16.0219 13.1641 16.0219 12.6171C16.0219 12.0701 15.8051 11.5455 15.419 11.1581C15.3983 11.1374 13.7943 9.90343 13.7943 9.90343C13.4093 9.53699 12.898 9.33294 12.3665 9.33368C11.835 9.33443 11.3242 9.53991 10.9403 9.90743L9.66963 10.9781C8.63242 10.5488 7.69022 9.91889 6.89716 9.12445C6.10409 8.33001 5.47578 7.38672 5.0483 6.34877L6.11497 5.0821C6.48278 4.69822 6.6885 4.18735 6.68937 3.6557C6.69024 3.12405 6.48619 2.61252 6.11963 2.22743C6.11963 2.22743 4.8843 0.625434 4.86364 0.604767C4.48327 0.221932 3.96756 0.00411495 3.42792 -0.0016232C2.88828 -0.00736136 2.36805 0.199441 1.97963 0.5741L1.21297 1.24077C-3.31637 6.49543 6.43697 16.1734 11.865 15.9994C12.4131 16.0026 12.9563 15.8959 13.4625 15.6857C13.9687 15.4755 14.4277 15.166 14.8123 14.7754Z" fill="#FFBF27"/>
</g>
<defs>
<clipPath id="clip0_281_459">
<rect width="16" height="16" fill="white" transform="translate(0.0234375)"/>
</clipPath>
</defs>
</svg>
