<svg width="104" height="21" viewBox="0 0 104 21" fill="none" xmlns="http://www.w3.org/2000/svg">
<g id="Group 39">
<path id="Star 1" d="M10.8335 0.0817871L14.1059 5.8877L20.6389 7.20586L16.1284 12.1123L16.8936 18.7329L10.8335 15.9593L4.7734 18.7329L5.53855 12.1123L1.02805 7.20586L7.56104 5.8877L10.8335 0.0817871Z" fill="#FFB800"/>
<path id="Star 2" d="M31.4536 0.0817871L34.7261 5.8877L41.2591 7.20586L36.7486 12.1123L37.5137 18.7329L31.4536 15.9593L25.3935 18.7329L26.1587 12.1123L21.6482 7.20586L28.1812 5.8877L31.4536 0.0817871Z" fill="#FFB800"/>
<path id="Star 3" d="M52.0737 0.0817871L55.3462 5.8877L61.8792 7.20586L57.3687 12.1123L58.1338 18.7329L52.0737 15.9593L46.0136 18.7329L46.7788 12.1123L42.2683 7.20586L48.8013 5.8877L52.0737 0.0817871Z" fill="#FFB800"/>
<path id="Star 4" d="M72.6938 0.0817871L75.9663 5.8877L82.4993 7.20586L77.9888 12.1123L78.7539 18.7329L72.6938 15.9593L66.6337 18.7329L67.3989 12.1123L62.8884 7.20586L69.4214 5.8877L72.6938 0.0817871Z" fill="#FFB800"/>
<path id="Star 5" d="M93.314 0.0817871L96.5864 5.8877L103.119 7.20586L98.6089 12.1123L99.3741 18.7329L93.314 15.9593L87.2539 18.7329L88.019 12.1123L83.5085 7.20586L90.0415 5.8877L93.314 0.0817871Z" fill="#FFB800"/>
</g>
</svg>
